<svg width="800" height="500" viewBox="0 0 800 500" xmlns="http://www.w3.org/2000/svg" role="img" aria-label="Business suite illustration with office desk and lounge">
<rect width="800" height="500" fill="#F2EAD6"/>
<rect x="0" y="0" width="800" height="500" fill="#E8DCC0" opacity="0.4"/>
<rect x="60" y="60" width="340" height="220" rx="6" fill="#3D2B0A"/>
<rect x="90" y="90" width="280" height="140" rx="4" fill="#1A1209"/>
<rect x="110" y="110" width="240" height="90" rx="2" fill="#A9C6DE"/>
<rect x="130" y="230" width="60" height="40" fill="#C9A84C"/>
<rect x="280" y="230" width="60" height="40" fill="#C9A84C"/>
<rect x="440" y="60" width="300" height="220" rx="6" fill="#FFFFFF" stroke="#C9A84C" stroke-width="2"/>
<rect x="470" y="90" width="240" height="20" rx="4" fill="#1A1209" opacity="0.5"/>
<rect x="470" y="120" width="180" height="14" rx="4" fill="#C9A84C" opacity="0.6"/>
<rect x="470" y="145" width="220" height="14" rx="4" fill="#C9A84C" opacity="0.4"/>
<rect x="470" y="190" width="100" height="60" rx="4" fill="#E8D08A"/>
<rect x="590" y="190" width="100" height="60" rx="4" fill="#3D2B0A"/>
<rect x="60" y="330" width="680" height="120" rx="8" fill="#C9A84C"/>
<rect x="90" y="350" width="200" height="80" rx="6" fill="#FFFFFF"/>
<rect x="320" y="350" width="200" height="80" rx="6" fill="#1A1209"/>
<rect x="550" y="350" width="160" height="80" rx="6" fill="#FFFFFF"/>
</svg>
