<svg width="800" height="500" viewBox="0 0 800 500" xmlns="http://www.w3.org/2000/svg" role="img" aria-label="Deluxe room illustration with king bed and city view window">
<rect width="800" height="500" fill="#F2EAD6"/>
<rect x="0" y="0" width="800" height="330" fill="#E8DCC0"/>
<rect x="500" y="40" width="240" height="260" fill="#2E3F5C" stroke="#3D2B0A" stroke-width="6"/>
<rect x="500" y="40" width="240" height="260" fill="none" stroke="#3D2B0A" stroke-width="6"/>
<line x1="620" y1="40" x2="620" y2="300" stroke="#3D2B0A" stroke-width="4"/>
<line x1="500" y1="170" x2="740" y2="170" stroke="#3D2B0A" stroke-width="4"/>
<circle cx="690" cy="90" r="20" fill="#F2EAD6" opacity="0.9"/>
<rect x="520" y="200" width="40" height="80" fill="#1A2C45" opacity="0.7"/>
<rect x="580" y="220" width="30" height="60" fill="#1A2C45" opacity="0.6"/>
<rect x="660" y="190" width="35" height="90" fill="#1A2C45" opacity="0.7"/>
<rect x="0" y="330" width="800" height="170" fill="#D8C9A3"/>
<rect x="60" y="280" width="420" height="190" rx="6" fill="#FFFFFF" stroke="#C9A84C" stroke-width="2"/>
<rect x="60" y="280" width="420" height="40" rx="6" fill="#C9A84C"/>
<rect x="100" y="300" width="100" height="14" rx="4" fill="#FFFFFF" opacity="0.7"/>
<rect x="380" y="300" width="80" height="14" rx="4" fill="#FFFFFF" opacity="0.7"/>
<rect x="90" y="340" width="70" height="100" rx="4" fill="#E8D08A"/>
<rect x="420" y="340" width="70" height="100" rx="4" fill="#E8D08A"/>
<rect x="180" y="330" width="220" height="110" rx="6" fill="#F2EAD6"/>
<rect x="200" y="350" width="180" height="14" rx="4" fill="#C9A84C" opacity="0.5"/>
<rect x="200" y="375" width="180" height="14" rx="4" fill="#C9A84C" opacity="0.3"/>
<rect x="610" y="350" width="130" height="150" rx="6" fill="#3D2B0A"/>
<rect x="630" y="370" width="90" height="30" rx="3" fill="#C9A84C"/>
<rect x="630" y="410" width="90" height="50" rx="3" fill="#1A1209"/>
<circle cx="675" cy="435" r="14" fill="#E8D08A"/>
<rect x="60" y="460" width="680" height="40" fill="#3D2B0A"/>
</svg>
