<svg width="800" height="500" viewBox="0 0 800 500" xmlns="http://www.w3.org/2000/svg" role="img" aria-label="Family suite illustration with two rooms and kids play area">
<rect width="800" height="500" fill="#F2EAD6"/>
<rect x="0" y="0" width="800" height="40" fill="#E8D08A"/>
<rect x="60" y="70" width="330" height="220" rx="6" fill="#FFFFFF" stroke="#C9A84C" stroke-width="2"/>
<rect x="90" y="100" width="120" height="80" rx="4" fill="#3D2B0A"/>
<rect x="230" y="100" width="120" height="80" rx="4" fill="#3D2B0A"/>
<rect x="90" y="200" width="260" height="60" rx="4" fill="#C9A84C"/>
<rect x="410" y="70" width="330" height="220" rx="6" fill="#FFFFFF" stroke="#C9A84C" stroke-width="2"/>
<circle cx="480" cy="140" r="30" fill="#E07A5F"/>
<rect x="540" y="120" width="30" height="60" fill="#81B29A"/>
<rect x="590" y="100" width="40" height="40" rx="20" fill="#F2CC8F"/>
<rect x="650" y="120" width="50" height="100" rx="6" fill="#3D2B0A"/>
<rect x="660" y="135" width="30" height="20" rx="3" fill="#E8D08A"/>
<rect x="60" y="330" width="680" height="120" rx="8" fill="#3D2B0A"/>
<rect x="90" y="350" width="180" height="80" rx="4" fill="#E8D08A"/>
<rect x="300" y="350" width="180" height="80" rx="4" fill="#C9A84C"/>
<rect x="510" y="350" width="200" height="80" rx="4" fill="#1A1209"/>
<circle cx="610" cy="390" r="20" fill="#E8D08A"/>
</svg>
