<svg width="800" height="500" viewBox="0 0 800 500" xmlns="http://www.w3.org/2000/svg" role="img" aria-label="Royal Penthouse illustration with terrace and skyline view">
<defs>
<linearGradient id="psky" x1="0" y1="0" x2="0" y2="1">
<stop offset="0%" stop-color="#1A2C45"/>
<stop offset="100%" stop-color="#C9A84C"/>
</linearGradient>
</defs>
<rect width="800" height="500" fill="url(#psky)"/>
<rect x="0" y="320" width="800" height="180" fill="#3D2B0A"/>
<rect x="40" y="340" width="100" height="160" fill="#1A1209"/>
<rect x="180" y="280" width="90" height="220" fill="#1A1209"/>
<rect x="650" y="300" width="110" height="200" fill="#1A1209"/>
<rect x="320" y="250" width="160" height="250" fill="#1A1209"/>
<g fill="#E8D08A">
<rect x="345" y="280" width="30" height="26"/>
<rect x="395" y="280" width="30" height="26"/>
<rect x="445" y="280" width="30" height="26"/>
<rect x="345" y="330" width="30" height="26" opacity="0.5"/>
<rect x="395" y="330" width="30" height="26"/>
<rect x="445" y="330" width="30" height="26"/>
</g>
<rect x="60" y="60" width="680" height="200" rx="8" fill="#FAF7F0" stroke="#C9A84C" stroke-width="3"/>
<rect x="90" y="90" width="280" height="140" rx="6" fill="#1A2C45"/>
<circle cx="320" cy="120" r="16" fill="#F2EAD6"/>
<rect x="400" y="90" width="300" height="60" rx="4" fill="#C9A84C"/>
<rect x="420" y="105" width="180" height="14" rx="4" fill="#1A1209" opacity="0.6"/>
<rect x="400" y="160" width="140" height="70" rx="4" fill="#E8D08A"/>
<rect x="560" y="160" width="140" height="70" rx="4" fill="#3D2B0A"/>
<circle cx="630" cy="195" r="20" fill="#C9A84C"/>
<rect x="60" y="430" width="680" height="20" fill="#170F07"/>
<rect x="610" y="380" width="70" height="50" rx="4" fill="#1A1209"/>
<rect x="625" y="370" width="40" height="14" rx="3" fill="#C9A84C"/>
</svg>
