<svg width="800" height="500" viewBox="0 0 800 500" xmlns="http://www.w3.org/2000/svg" role="img" aria-label="Premium suite illustration with lounge area and bathtub">
<rect width="800" height="500" fill="#FAF7F0"/>
<rect x="0" y="0" width="800" height="500" fill="#F2EAD6"/>
<rect x="0" y="0" width="800" height="40" fill="#C9A84C"/>
<rect x="60" y="80" width="320" height="220" rx="6" fill="#FFFFFF" stroke="#C9A84C" stroke-width="2"/>
<rect x="90" y="110" width="100" height="70" rx="6" fill="#3D2B0A"/>
<rect x="200" y="110" width="100" height="70" rx="6" fill="#3D2B0A"/>
<rect x="90" y="200" width="260" height="20" rx="4" fill="#E8D08A"/>
<circle cx="120" cy="260" r="20" fill="#C9A84C"/>
<circle cx="320" cy="260" r="20" fill="#C9A84C"/>
<rect x="430" y="80" width="310" height="220" rx="6" fill="#1A2C45"/>
<rect x="460" y="110" width="250" height="160" rx="4" fill="#FFFFFF" opacity="0.9"/>
<ellipse cx="585" cy="190" rx="100" ry="55" fill="#A9C6DE"/>
<rect x="540" y="150" width="90" height="20" rx="10" fill="#FFFFFF"/>
<circle cx="700" cy="135" r="6" fill="#C9A84C"/>
<rect x="60" y="330" width="680" height="140" rx="8" fill="#3D2B0A"/>
<rect x="90" y="350" width="280" height="100" rx="6" fill="#E8D08A"/>
<rect x="120" y="370" width="90" height="14" rx="4" fill="#3D2B0A" opacity="0.4"/>
<rect x="120" y="395" width="200" height="14" rx="4" fill="#3D2B0A" opacity="0.25"/>
<rect x="420" y="350" width="290" height="100" rx="6" fill="#C9A84C"/>
<circle cx="465" cy="400" r="28" fill="#FAF7F0"/>
<rect x="510" y="375" width="170" height="14" rx="4" fill="#FAF7F0" opacity="0.8"/>
<rect x="510" y="400" width="140" height="14" rx="4" fill="#FAF7F0" opacity="0.5"/>
</svg>
